<svg width="256" height="256" viewBox="0 0 256 256" fill="none" xmlns="http://www.w3.org/2000/svg">
<path d="M222.37 158.46L175.26 137.35L175.13 137.29C172.684 136.244 170.017 135.824 167.368 136.069C164.719 136.313 162.173 137.214 159.96 138.69C159.7 138.862 159.449 139.049 159.21 139.25L134.87 160C119.45 152.51 103.53 136.71 96.0401 121.49L116.82 96.78C117.02 96.53 117.21 96.28 117.39 96.01C118.834 93.803 119.711 91.2732 119.941 88.6457C120.171 86.0182 119.748 83.3746 118.71 80.95V80.83L97.5401 33.64C96.1675 30.4726 93.8073 27.8341 90.812 26.1184C87.8166 24.4026 84.3466 23.7016 80.9201 24.12C67.3698 25.9031 54.9319 32.5577 45.9294 42.8409C36.927 53.1242 31.9756 66.3329 32.0001 80C32.0001 159.4 96.6001 224 176 224C189.667 224.024 202.876 219.073 213.159 210.071C223.442 201.068 230.097 188.63 231.88 175.08C232.299 171.655 231.6 168.186 229.886 165.19C228.172 162.195 225.536 159.834 222.37 158.46ZM176 208C142.064 207.963 109.528 194.465 85.5313 170.469C61.5347 146.472 48.0371 113.936 48.0001 80C47.9625 70.2349 51.4806 60.7899 57.8975 53.4291C64.3143 46.0682 73.1911 41.2947 82.8701 40C82.8662 40.0399 82.8662 40.0801 82.8701 40.12L103.87 87.12L83.2001 111.86C82.9903 112.101 82.7997 112.359 82.6301 112.63C81.1252 114.939 80.2424 117.598 80.0672 120.349C79.892 123.099 80.4304 125.849 81.6301 128.33C90.6901 146.86 109.36 165.39 128.09 174.44C130.59 175.628 133.355 176.148 136.116 175.948C138.876 175.749 141.538 174.836 143.84 173.3C144.097 173.127 144.344 172.94 144.58 172.74L168.89 152L215.89 173.05H216C214.721 182.743 209.955 191.637 202.593 198.07C195.23 204.503 185.777 208.033 176 208Z" fill="#3DAB2F"/>
</svg>
