<svg width="129" height="56" viewBox="0 0 129 56" fill="none" xmlns="http://www.w3.org/2000/svg">
<path d="M23.292 26.804C23.004 27.044 22.464 27.368 21.672 27.776C20.904 28.184 19.956 28.544 18.828 28.856C17.7 29.168 16.452 29.312 15.084 29.288C12.996 29.24 11.124 28.868 9.468 28.172C7.836 27.452 6.444 26.48 5.292 25.256C4.164 24.032 3.3 22.628 2.7 21.044C2.1 19.46 1.8 17.768 1.8 15.968C1.8 13.952 2.1 12.104 2.7 10.424C3.324 8.744 4.2 7.292 5.328 6.068C6.48 4.844 7.848 3.896 9.432 3.224C11.016 2.552 12.768 2.216 14.688 2.216C16.464 2.216 18.036 2.456 19.404 2.936C20.772 3.416 21.888 3.932 22.752 4.484L20.7 9.416C20.1 8.96 19.296 8.492 18.288 8.012C17.304 7.508 16.164 7.256 14.868 7.256C13.86 7.256 12.888 7.472 11.952 7.904C11.04 8.312 10.224 8.9 9.504 9.668C8.808 10.436 8.256 11.336 7.848 12.368C7.44 13.376 7.236 14.48 7.236 15.68C7.236 16.952 7.416 18.116 7.776 19.172C8.16 20.228 8.7 21.14 9.396 21.908C10.092 22.652 10.92 23.228 11.88 23.636C12.864 24.044 13.968 24.248 15.192 24.248C16.608 24.248 17.82 24.02 18.828 23.564C19.836 23.108 20.604 22.628 21.132 22.124L23.292 26.804ZM34.3176 29.432C32.8536 29.432 31.5216 29.144 30.3216 28.568C29.1456 27.968 28.2096 27.056 27.5136 25.832C26.8176 24.608 26.4696 23.048 26.4696 21.152C26.4696 19.376 26.8296 17.84 27.5496 16.544C28.2696 15.248 29.2176 14.252 30.3936 13.556C31.5696 12.836 32.8176 12.476 34.1376 12.476C35.6976 12.476 36.8736 12.74 37.6656 13.268C38.4816 13.772 39.1536 14.336 39.6816 14.96L39.4656 15.572L39.9336 13.268H44.6136V29H39.5736V25.58L39.9696 26.66C39.9216 26.66 39.7776 26.804 39.5376 27.092C39.2976 27.356 38.9376 27.68 38.4576 28.064C38.0016 28.424 37.4256 28.736 36.7296 29C36.0576 29.288 35.2536 29.432 34.3176 29.432ZM35.7576 25.328C36.3576 25.328 36.8976 25.244 37.3776 25.076C37.8576 24.884 38.2776 24.62 38.6376 24.284C38.9976 23.924 39.3096 23.48 39.5736 22.952V19.1C39.3816 18.572 39.0936 18.128 38.7096 17.768C38.3256 17.384 37.8696 17.096 37.3416 16.904C36.8136 16.688 36.2256 16.58 35.5776 16.58C34.8576 16.58 34.1856 16.772 33.5616 17.156C32.9616 17.516 32.4816 18.02 32.1216 18.668C31.7616 19.316 31.5816 20.06 31.5816 20.9C31.5816 21.74 31.7736 22.496 32.1576 23.168C32.5416 23.84 33.0456 24.368 33.6696 24.752C34.3176 25.136 35.0136 25.328 35.7576 25.328ZM59.6708 29.432C58.7348 29.432 57.8108 29.264 56.8988 28.928C56.0108 28.568 55.2668 28.064 54.6668 27.416L54.8108 25.94V36.56H49.8068V12.908H54.1268L54.8468 15.968L54.4508 14.888C55.2668 14.192 56.1788 13.616 57.1868 13.16C58.1948 12.704 59.3588 12.476 60.6788 12.476C62.1428 12.476 63.4508 12.824 64.6028 13.52C65.7548 14.192 66.6548 15.176 67.3028 16.472C67.9748 17.744 68.3108 19.28 68.3108 21.08C68.3108 22.856 67.9388 24.368 67.1948 25.616C66.4508 26.864 65.4308 27.812 64.1348 28.46C62.8388 29.108 61.3508 29.432 59.6708 29.432ZM58.6628 25.472C59.4788 25.472 60.2228 25.292 60.8948 24.932C61.5908 24.572 62.1428 24.068 62.5508 23.42C62.9828 22.748 63.1988 21.992 63.1988 21.152C63.1988 20.264 63.0068 19.496 62.6228 18.848C62.2628 18.176 61.7588 17.66 61.1108 17.3C60.4868 16.916 59.7908 16.724 59.0228 16.724C58.3508 16.724 57.7508 16.82 57.2228 17.012C56.7188 17.18 56.2628 17.444 55.8548 17.804C55.4708 18.14 55.1348 18.572 54.8468 19.1V22.952C55.0388 23.456 55.3148 23.9 55.6748 24.284C56.0348 24.668 56.4668 24.968 56.9708 25.184C57.4988 25.376 58.0628 25.472 58.6628 25.472ZM72.2717 13.268H77.3117V29H72.2717V13.268ZM72.1637 7.688C72.1637 6.944 72.4517 6.332 73.0277 5.852C73.6277 5.372 74.2637 5.132 74.9357 5.132C75.6077 5.132 76.2197 5.372 76.7717 5.852C77.3477 6.332 77.6357 6.944 77.6357 7.688C77.6357 8.432 77.3477 9.044 76.7717 9.524C76.2197 9.98 75.6077 10.208 74.9357 10.208C74.2637 10.208 73.6277 9.98 73.0277 9.524C72.4517 9.044 72.1637 8.432 72.1637 7.688ZM83.9782 6.356H89.0182V13.196H92.8342V17.12H89.0182V29H83.9782V17.12H81.5302V13.196H83.9782V6.356ZM103.294 29.432C101.83 29.432 100.498 29.144 99.2981 28.568C98.1221 27.968 97.1861 27.056 96.4901 25.832C95.7941 24.608 95.4461 23.048 95.4461 21.152C95.4461 19.376 95.8061 17.84 96.5261 16.544C97.2461 15.248 98.1941 14.252 99.3701 13.556C100.546 12.836 101.794 12.476 103.114 12.476C104.674 12.476 105.85 12.74 106.642 13.268C107.458 13.772 108.13 14.336 108.658 14.96L108.442 15.572L108.91 13.268H113.59V29H108.55V25.58L108.946 26.66C108.898 26.66 108.754 26.804 108.514 27.092C108.274 27.356 107.914 27.68 107.434 28.064C106.978 28.424 106.402 28.736 105.706 29C105.034 29.288 104.23 29.432 103.294 29.432ZM104.734 25.328C105.334 25.328 105.874 25.244 106.354 25.076C106.834 24.884 107.254 24.62 107.614 24.284C107.974 23.924 108.286 23.48 108.55 22.952V19.1C108.358 18.572 108.07 18.128 107.686 17.768C107.302 17.384 106.846 17.096 106.318 16.904C105.79 16.688 105.202 16.58 104.554 16.58C103.834 16.58 103.162 16.772 102.538 17.156C101.938 17.516 101.458 18.02 101.098 18.668C100.738 19.316 100.558 20.06 100.558 20.9C100.558 21.74 100.75 22.496 101.134 23.168C101.518 23.84 102.022 24.368 102.646 24.752C103.294 25.136 103.99 25.328 104.734 25.328ZM118.783 0.595999H123.823V29H118.783V0.595999Z" fill="#1D1D1D"/>
<path d="M5.564 55.234C4.628 55.234 3.75267 55.0693 2.938 54.74C2.14067 54.4107 1.46467 53.9513 0.91 53.362L2.418 51.36C2.97267 51.8627 3.484 52.2267 3.952 52.452C4.43733 52.66 4.87067 52.764 5.252 52.764C5.54667 52.764 5.80667 52.738 6.032 52.686C6.27467 52.6167 6.46533 52.5213 6.604 52.4C6.74267 52.2613 6.812 52.088 6.812 51.88C6.812 51.5853 6.69067 51.3513 6.448 51.178C6.22267 51.0047 5.928 50.866 5.564 50.762C5.2 50.6407 4.81 50.5193 4.394 50.398C3.354 50.0687 2.6 49.592 2.132 48.968C1.68133 48.3267 1.456 47.6333 1.456 46.888C1.456 46.316 1.60333 45.744 1.898 45.172C2.21 44.5827 2.69533 44.0973 3.354 43.716C4.03 43.3173 4.89667 43.118 5.954 43.118C6.90733 43.118 7.71333 43.2133 8.372 43.404C9.03067 43.5947 9.65467 43.9067 10.244 44.34L8.866 46.472C8.53667 46.212 8.164 45.9953 7.748 45.822C7.34933 45.6313 6.97667 45.5273 6.63 45.51C6.318 45.4927 6.04933 45.5273 5.824 45.614C5.616 45.7007 5.45133 45.8133 5.33 45.952C5.20867 46.0907 5.148 46.238 5.148 46.394C5.13067 46.7233 5.252 46.9833 5.512 47.174C5.78933 47.3647 6.136 47.512 6.552 47.616C6.968 47.72 7.37533 47.8413 7.774 47.98C8.32867 48.1533 8.80533 48.3873 9.204 48.682C9.60267 48.9767 9.906 49.332 10.114 49.748C10.3393 50.1467 10.452 50.632 10.452 51.204C10.452 51.8973 10.27 52.556 9.906 53.18C9.55933 53.7867 9.022 54.2807 8.294 54.662C7.58333 55.0433 6.67333 55.234 5.564 55.234ZM14.5669 38.646H18.2069V43.586H20.9629V46.42H18.2069V55H14.5669V46.42H12.7989V43.586H14.5669V38.646ZM28.5173 55.312C27.46 55.312 26.498 55.104 25.6313 54.688C24.782 54.2547 24.106 53.596 23.6033 52.712C23.1007 51.828 22.8493 50.7013 22.8493 49.332C22.8493 48.0493 23.1093 46.94 23.6293 46.004C24.1493 45.068 24.834 44.3487 25.6833 43.846C26.5327 43.326 27.434 43.066 28.3873 43.066C29.514 43.066 30.3633 43.2567 30.9353 43.638C31.5247 44.002 32.01 44.4093 32.3913 44.86L32.2353 45.302L32.5733 43.638H35.9533V55H32.3133V52.53L32.5993 53.31C32.5647 53.31 32.4607 53.414 32.2873 53.622C32.114 53.8127 31.854 54.0467 31.5073 54.324C31.178 54.584 30.762 54.8093 30.2593 55C29.774 55.208 29.1933 55.312 28.5173 55.312ZM29.5573 52.348C29.9907 52.348 30.3807 52.2873 30.7273 52.166C31.074 52.0273 31.3773 51.8367 31.6373 51.594C31.8973 51.334 32.1227 51.0133 32.3133 50.632V47.85C32.1747 47.4687 31.9667 47.148 31.6893 46.888C31.412 46.6107 31.0827 46.4027 30.7013 46.264C30.32 46.108 29.8953 46.03 29.4273 46.03C28.9073 46.03 28.422 46.1687 27.9713 46.446C27.538 46.706 27.1913 47.07 26.9313 47.538C26.6713 48.006 26.5413 48.5433 26.5413 49.15C26.5413 49.7567 26.68 50.3027 26.9573 50.788C27.2347 51.2733 27.5987 51.6547 28.0493 51.932C28.5173 52.2093 29.02 52.348 29.5573 52.348ZM40.77 38.646H44.41V43.586H47.166V46.42H44.41V55H40.77V46.42H39.002V43.586H40.77V38.646ZM55.5265 55.312C54.1398 55.312 52.9611 55.052 51.9905 54.532C51.0371 54.012 50.3091 53.2927 49.8065 52.374C49.3038 51.4553 49.0525 50.398 49.0525 49.202C49.0525 48.058 49.3471 47.0267 49.9365 46.108C50.5258 45.1893 51.3145 44.4613 52.3025 43.924C53.2905 43.3693 54.3911 43.092 55.6045 43.092C57.2338 43.092 58.5685 43.5687 59.6085 44.522C60.6658 45.458 61.3505 46.8187 61.6625 48.604L52.8225 51.412L52.0165 49.436L58.4125 47.278L57.6585 47.616C57.5198 47.1653 57.2685 46.7753 56.9045 46.446C56.5578 46.0993 56.0291 45.926 55.3185 45.926C54.7811 45.926 54.3045 46.056 53.8885 46.316C53.4898 46.5587 53.1778 46.914 52.9525 47.382C52.7445 47.8327 52.6405 48.37 52.6405 48.994C52.6405 49.7047 52.7705 50.3027 53.0305 50.788C53.2905 51.256 53.6458 51.6113 54.0965 51.854C54.5471 52.0967 55.0498 52.218 55.6045 52.218C56.0031 52.218 56.3845 52.1487 56.7485 52.01C57.1298 51.8713 57.5025 51.6893 57.8665 51.464L59.4785 54.168C58.8718 54.5147 58.2131 54.792 57.5025 55C56.8091 55.208 56.1505 55.312 55.5265 55.312ZM73.8546 55V46.81H71.9306V43.586H73.8546V39.634C73.8546 38.1433 74.2793 36.93 75.1286 35.994C75.9953 35.0407 77.2433 34.564 78.8726 34.564C79.358 34.564 79.8953 34.642 80.4846 34.798C81.0913 34.9367 81.62 35.1707 82.0706 35.5L80.5366 38.126C80.3633 37.9007 80.1553 37.7533 79.9126 37.684C79.6873 37.5973 79.4706 37.554 79.2626 37.554C78.7426 37.554 78.318 37.7273 77.9886 38.074C77.6593 38.4207 77.4946 38.9753 77.4946 39.738V43.586H80.9266V46.81H77.4946V55H73.8546ZM88.0583 55.312C87.001 55.312 86.039 55.104 85.1723 54.688C84.323 54.2547 83.647 53.596 83.1443 52.712C82.6417 51.828 82.3903 50.7013 82.3903 49.332C82.3903 48.0493 82.6503 46.94 83.1703 46.004C83.6903 45.068 84.375 44.3487 85.2243 43.846C86.0737 43.326 86.975 43.066 87.9283 43.066C89.055 43.066 89.9043 43.2567 90.4763 43.638C91.0657 44.002 91.551 44.4093 91.9323 44.86L91.7763 45.302L92.1143 43.638H95.4943V55H91.8543V52.53L92.1403 53.31C92.1057 53.31 92.0017 53.414 91.8283 53.622C91.655 53.8127 91.395 54.0467 91.0483 54.324C90.719 54.584 90.303 54.8093 89.8003 55C89.315 55.208 88.7343 55.312 88.0583 55.312ZM89.0983 52.348C89.5317 52.348 89.9217 52.2873 90.2683 52.166C90.615 52.0273 90.9183 51.8367 91.1783 51.594C91.4383 51.334 91.6637 51.0133 91.8543 50.632V47.85C91.7157 47.4687 91.5077 47.148 91.2303 46.888C90.953 46.6107 90.6237 46.4027 90.2423 46.264C89.861 46.108 89.4363 46.03 88.9683 46.03C88.4483 46.03 87.963 46.1687 87.5123 46.446C87.079 46.706 86.7323 47.07 86.4723 47.538C86.2123 48.006 86.0823 48.5433 86.0823 49.15C86.0823 49.7567 86.221 50.3027 86.4983 50.788C86.7757 51.2733 87.1397 51.6547 87.5903 51.932C88.0583 52.2093 88.561 52.348 89.0983 52.348ZM102.521 43.638L102.859 46.758L102.781 46.29C103.11 45.614 103.561 45.042 104.133 44.574C104.705 44.0887 105.268 43.716 105.823 43.456C106.395 43.196 106.828 43.066 107.123 43.066L106.941 46.706C106.092 46.602 105.364 46.7407 104.757 47.122C104.15 47.5033 103.682 48.006 103.353 48.63C103.024 49.254 102.859 49.8953 102.859 50.554V55H99.245V43.638H102.521ZM113.211 43.638L113.497 45.64L113.445 45.484C113.896 44.7213 114.459 44.132 115.135 43.716C115.811 43.2827 116.626 43.066 117.579 43.066C118.203 43.066 118.749 43.1527 119.217 43.326C119.702 43.4993 120.11 43.7593 120.439 44.106C120.768 44.4353 120.994 44.8687 121.115 45.406L120.985 45.432C121.47 44.7213 122.051 44.1493 122.727 43.716C123.42 43.2827 124.14 43.066 124.885 43.066C126.012 43.066 126.904 43.3867 127.563 44.028C128.239 44.652 128.586 45.4667 128.603 46.472V55H124.989V47.98C124.972 47.4773 124.894 47.07 124.755 46.758C124.616 46.4287 124.296 46.2467 123.793 46.212C123.204 46.212 122.701 46.42 122.285 46.836C121.886 47.2347 121.583 47.7547 121.375 48.396C121.184 49.02 121.089 49.67 121.089 50.346V55H117.449V47.98C117.432 47.4773 117.336 47.07 117.163 46.758C117.007 46.4287 116.678 46.2467 116.175 46.212C115.603 46.212 115.118 46.42 114.719 46.836C114.338 47.2347 114.043 47.746 113.835 48.37C113.644 48.994 113.549 49.6353 113.549 50.294V55H109.909V43.638H113.211Z" fill="#3DAB2F"/>
</svg>
