<svg width="24" height="24" viewBox="0 0 24 24" fill="none" xmlns="http://www.w3.org/2000/svg">
<path d="M16.8201 20.768L3.75306 3.968C3.68419 3.87931 3.64159 3.77307 3.6301 3.66137C3.61861 3.54967 3.63871 3.43698 3.68809 3.33613C3.73747 3.23528 3.81416 3.15032 3.90944 3.09089C4.00472 3.03147 4.11477 2.99998 4.22706 3H6.70706C6.79836 3.00014 6.88842 3.0211 6.97038 3.06131C7.05235 3.10151 7.12406 3.15989 7.18006 3.232L20.2471 20.032C20.3159 20.1207 20.3585 20.2269 20.37 20.3386C20.3815 20.4503 20.3614 20.563 20.312 20.6639C20.2626 20.7647 20.186 20.8497 20.0907 20.9091C19.9954 20.9685 19.8854 21 19.7731 21H17.2931C17.2018 20.9999 17.1117 20.9789 17.0297 20.9387C16.9478 20.8985 16.8761 20.8401 16.8201 20.768Z" stroke="black" stroke-width="1.5"/>
<path d="M20 3L4 21" stroke="black" stroke-width="1.5" stroke-linecap="round"/>
</svg>
